ffmpeg started on 2025-05-29 at 15:38:32
Report written to "D:\Convert\FFMetrics\reports\psnr_report-6.txt"
Log level: 32
Command line:
ffmpeg -hide_banner -nostdin -i "G:\\\xc0\xed\xe8\xec\xe5\\\xce\xed\xe3\xee\xe8\xed\xe3\xe8\\!_36_\xce\xf1\xe5\xed\xfc_2024\\JamClub\\\xd0\xe0\xed\xec\xe0 1_2\\[JamClub] Ranma 1_2 - 01 [1080p]_HEVC.mkv" -i "G:\\\xc0\xed\xe8\xec\xe5\\\xce\xed\xe3\xee\xe8\xed\xe3\xe8\\!_36_\xce\xf1\xe5\xed\xfc_2024\\JamClub\\\xd0\xe0\xed\xec\xe0 1_2\\[JamClub] Ranma 1_2 - 01 [1080p].mp4" -lavfi "[0:v]settb=AVTB,setpts=PTS-STARTPTS,format=pix_fmts=yuv420p10,fps=24000/1001,scale=1920:1080:flags=bicubic[main];[1:v]settb=AVTB,setpts=PTS-STARTPTS,format=pix_fmts=yuv420p,fps=24000/1001,scale=1920:1080:flags=bicubic[ref];[main][ref]psnr=eof_action=endall:stats_file='D\\:/Convert/FFMetrics/logs/psnr_logfile-6.txt'" -f null -
Input #0, matroska,webm, from 'G:\Аниме\Онгоинги\!_36_Осень_2024\JamClub\Ранма 1_2\[JamClub] Ranma 1_2 - 01 [1080p]_HEVC.mkv':
  Metadata:
    COMPATIBLE_BRANDS: isomiso2avc1mp41
    MAJOR_BRAND     : isom
    MINOR_VERSION   : 512
    ENCODER         : Lavf61.7.100
  Duration: 00:24:44.48, start: -0.021000, bitrate: 1773 kb/s
  Stream #0:0: Video: hevc (Main 10), yuv420p10le(tv, bt709, progressive), 1920x1080 [SAR 1:1 DAR 16:9], 23.98 fps, 23.98 tbr, 1k tbn (default)
      Metadata:
        HANDLER_NAME    : VideoHandler
        VENDOR_ID       : [0][0][0][0]
        ENCODER         : Lavc61.19.100 libx265
        BPS             : 1581115
        DURATION        : 00:24:44.273708333
        NUMBER_OF_FRAMES: 35587
        NUMBER_OF_BYTES : 293350809
        _STATISTICS_WRITING_APP: mkvpropedit v66.0.0 ('Josie') 64-bit
        _STATISTICS_WRITING_DATE_UTC: 2025-05-29 06:29:19
        _STATISTICS_TAGS: BPS DURATION NUMBER_OF_FRAMES NUMBER_OF_BYTES
  Stream #0:1(eng): Audio: aac (LC), 48000 Hz, stereo, fltp (default)
      Metadata:
        HANDLER_NAME    : SoundHandler
        VENDOR_ID       : [0][0][0][0]
        ENCODER         : Lavc61.19.100 aac
        BPS             : 188545
        DURATION        : 00:24:44.461000000
        NUMBER_OF_FRAMES: 69585
        NUMBER_OF_BYTES : 34986117
        _STATISTICS_WRITING_APP: mkvpropedit v66.0.0 ('Josie') 64-bit
        _STATISTICS_WRITING_DATE_UTC: 2025-05-29 06:29:19
        _STATISTICS_TAGS: BPS DURATION NUMBER_OF_FRAMES NUMBER_OF_BYTES
Input #1, mov,mp4,m4a,3gp,3g2,mj2, from 'G:\Аниме\Онгоинги\!_36_Осень_2024\JamClub\Ранма 1_2\[JamClub] Ranma 1_2 - 01 [1080p].mp4':
  Metadata:
    major_brand     : isom
    minor_version   : 512
    compatible_brands: isomiso2avc1mp41
    encoder         : Lavf60.16.100
  Duration: 00:24:44.46, start: 0.000000, bitrate: 4644 kb/s
  Stream #1:0[0x1](und): Video: h264 (High) (avc1 / 0x31637661), yuv420p(tv, bt709, progressive), 1920x1080 [SAR 1:1 DAR 16:9], 4446 kb/s, 23.98 fps, 23.98 tbr, 90k tbn (default)
      Metadata:
        handler_name    : VideoHandler
        vendor_id       : [0][0][0][0]
  Stream #1:1[0x2](eng): Audio: aac (LC) (mp4a / 0x6134706D), 48000 Hz, stereo, fltp, 191 kb/s (default)
      Metadata:
        handler_name    : SoundHandler
        vendor_id       : [0][0][0][0]
Stream mapping:
  Stream #0:0 (hevc) -> settb:default
  Stream #1:0 (h264) -> settb:default
  psnr:default -> Stream #0:0 (wrapped_avframe)
  Stream #0:1 -> #0:1 (aac (native) -> pcm_s16le (native))
Output #0, null, to 'pipe:':
  Metadata:
    COMPATIBLE_BRANDS: isomiso2avc1mp41
    MAJOR_BRAND     : isom
    MINOR_VERSION   : 512
    encoder         : Lavf61.7.100
  Stream #0:0: Video: wrapped_avframe, yuv420p10le(tv, bt709, progressive), 1920x1080 [SAR 1:1 DAR 16:9], q=2-31, 200 kb/s, 23.98 fps, 23.98 tbn
      Metadata:
        encoder         : Lavc61.19.100 wrapped_avframe
  Stream #0:1(eng): Audio: pcm_s16le, 48000 Hz, stereo, s16, 1536 kb/s (default)
      Metadata:
        HANDLER_NAME    : SoundHandler
        VENDOR_ID       : [0][0][0][0]
        _STATISTICS_TAGS: BPS DURATION NUMBER_OF_FRAMES NUMBER_OF_BYTES
        BPS             : 188545
        DURATION        : 00:24:44.461000000
        NUMBER_OF_FRAMES: 69585
        NUMBER_OF_BYTES : 34986117
        _STATISTICS_WRITING_APP: mkvpropedit v66.0.0 ('Josie') 64-bit
        _STATISTICS_WRITING_DATE_UTC: 2025-05-29 06:29:19
        encoder         : Lavc61.19.100 pcm_s16le
frame=  115 fps=0.0 q=-0.0 size=N/A time=00:00:04.79 bitrate=N/A speed=9.28x    frame=  280 fps=269 q=-0.0 size=N/A time=00:00:11.67 bitrate=N/A speed=11.2x    frame=  477 fps=308 q=-0.0 size=N/A time=00:00:19.89 bitrate=N/A speed=12.8x    frame=  732 fps=353 q=-0.0 size=N/A time=00:00:30.53 bitrate=N/A speed=14.7x    frame=  960 fps=372 q=-0.0 size=N/A time=00:00:40.04 bitrate=N/A speed=15.5x    frame= 1203 fps=388 q=-0.0 size=N/A time=00:00:50.17 bitrate=N/A speed=16.2x    frame= 1482 fps=410 q=-0.0 size=N/A time=00:01:01.81 bitrate=N/A speed=17.1x    frame= 1726 fps=418 q=-0.0 size=N/A time=00:01:11.98 bitrate=N/A speed=17.4x    frame= 1948 fps=420 q=-0.0 size=N/A time=00:01:21.24 bitrate=N/A speed=17.5x    frame= 2122 fps=411 q=-0.0 size=N/A time=00:01:28.50 bitrate=N/A speed=17.1x    frame= 2278 fps=401 q=-0.0 size=N/A time=00:01:35.01 bitrate=N/A speed=16.7x    frame= 2477 fps=399 q=-0.0 size=N/A time=00:01:43.31 bitrate=N/A speed=16.6x    frame= 2639 fps=393 q=-0.0 size=N/A time=00:01:50.06 bitrate=N/A speed=16.4x    frame= 2815 fps=389 q=-0.0 size=N/A time=00:01:57.40 bitrate=N/A speed=16.2x    frame= 2973 fps=383 q=-0.0 size=N/A time=00:02:03.99 bitrate=N/A speed=  16x    frame= 3135 fps=379 q=-0.0 size=N/A time=00:02:10.75 bitrate=N/A speed=15.8x    frame= 3304 fps=376 q=-0.0 size=N/A time=00:02:17.80 bitrate=N/A speed=15.7x    frame= 3456 fps=372 q=-0.0 size=N/A time=00:02:24.14 bitrate=N/A speed=15.5x    frame= 3582 fps=365 q=-0.0 size=N/A time=00:02:29.39 bitrate=N/A speed=15.2x    frame= 3744 fps=362 q=-0.0 size=N/A time=00:02:36.15 bitrate=N/A speed=15.1x    frame= 3902 fps=359 q=-0.0 size=N/A time=00:02:42.74 bitrate=N/A speed=  15x    frame= 4131 fps=363 q=-0.0 size=N/A time=00:02:52.29 bitrate=N/A speed=15.2x    frame= 4358 fps=367 q=-0.0 size=N/A time=00:03:01.76 bitrate=N/A speed=15.3x    frame= 4566 fps=368 q=-0.0 size=N/A time=00:03:10.44 bitrate=N/A speed=15.4x    frame= 4771 fps=370 q=-0.0 size=N/A time=00:03:18.99 bitrate=N/A speed=15.4x    frame= 5021 fps=374 q=-0.0 size=N/A time=00:03:29.41 bitrate=N/A speed=15.6x    frame= 5224 fps=375 q=-0.0 size=N/A time=00:03:37.88 bitrate=N/A speed=15.6x    frame= 5480 fps=379 q=-0.0 size=N/A time=00:03:48.56 bitrate=N/A speed=15.8x    frame= 5740 fps=383 q=-0.0 size=N/A time=00:03:59.40 bitrate=N/A speed=  16x    frame= 5975 fps=385 q=-0.0 size=N/A time=00:04:09.20 bitrate=N/A speed=16.1x    frame= 6213 fps=388 q=-0.0 size=N/A time=00:04:19.13 bitrate=N/A speed=16.2x    frame= 6469 fps=391 q=-0.0 size=N/A time=00:04:29.81 bitrate=N/A speed=16.3x    frame= 6729 fps=395 q=-0.0 size=N/A time=00:04:40.65 bitrate=N/A speed=16.5x    frame= 6892 fps=392 q=-0.0 size=N/A time=00:04:47.45 bitrate=N/A speed=16.4x    frame= 7057 fps=390 q=-0.0 size=N/A time=00:04:54.33 bitrate=N/A speed=16.3x    frame= 7229 fps=389 q=-0.0 size=N/A time=00:05:01.50 bitrate=N/A speed=16.2x    frame= 7424 fps=388 q=-0.0 size=N/A time=00:05:09.64 bitrate=N/A speed=16.2x    frame= 7654 fps=390 q=-0.0 size=N/A time=00:05:19.23 bitrate=N/A speed=16.3x    frame= 7824 fps=388 q=-0.0 size=N/A time=00:05:26.32 bitrate=N/A speed=16.2x    frame= 8027 fps=388 q=-0.0 size=N/A time=00:05:34.79 bitrate=N/A speed=16.2x    frame= 8237 fps=389 q=-0.0 size=N/A time=00:05:43.55 bitrate=N/A speed=16.2x    frame= 8466 fps=390 q=-0.0 size=N/A time=00:05:53.10 bitrate=N/A speed=16.3x    frame= 8672 fps=391 q=-0.0 size=N/A time=00:06:01.69 bitrate=N/A speed=16.3x    frame= 8859 fps=390 q=-0.0 size=N/A time=00:06:09.49 bitrate=N/A speed=16.3x    frame= 9100 fps=392 q=-0.0 size=N/A time=00:06:19.54 bitrate=N/A speed=16.3x    frame= 9333 fps=393 q=-0.0 size=N/A time=00:06:29.26 bitrate=N/A speed=16.4x    frame= 9546 fps=393 q=-0.0 size=N/A time=00:06:38.14 bitrate=N/A speed=16.4x    frame= 9792 fps=395 q=-0.0 size=N/A time=00:06:48.40 bitrate=N/A speed=16.5x    frame=10076 fps=398 q=-0.0 size=N/A time=00:07:00.25 bitrate=N/A speed=16.6x    frame=10351 fps=401 q=-0.0 size=N/A time=00:07:11.72 bitrate=N/A speed=16.7x    frame=10614 fps=403 q=-0.0 size=N/A time=00:07:22.69 bitrate=N/A speed=16.8x    frame=10870 fps=405 q=-0.0 size=N/A time=00:07:33.36 bitrate=N/A speed=16.9x    frame=11133 fps=407 q=-0.0 size=N/A time=00:07:44.33 bitrate=N/A speed=  17x    frame=11360 fps=407 q=-0.0 size=N/A time=00:07:53.80 bitrate=N/A speed=  17x    frame=11626 fps=409 q=-0.0 size=N/A time=00:08:04.90 bitrate=N/A speed=17.1x    frame=11889 fps=411 q=-0.0 size=N/A time=00:08:15.87 bitrate=N/A speed=17.1x    frame=12149 fps=413 q=-0.0 size=N/A time=00:08:26.71 bitrate=N/A speed=17.2x    frame=12404 fps=414 q=-0.0 size=N/A time=00:08:37.35 bitrate=N/A speed=17.3x    frame=12662 fps=415 q=-0.0 size=N/A time=00:08:48.11 bitrate=N/A speed=17.3x    frame=12920 fps=417 q=-0.0 size=N/A time=00:08:58.87 bitrate=N/A speed=17.4x    frame=13176 fps=418 q=-0.0 size=N/A time=00:09:09.54 bitrate=N/A speed=17.4x    frame=13464 fps=420 q=-0.0 size=N/A time=00:09:21.56 bitrate=N/A speed=17.5x    frame=13733 fps=422 q=-0.0 size=N/A time=00:09:32.78 bitrate=N/A speed=17.6x    frame=13990 fps=423 q=-0.0 size=N/A time=00:09:43.49 bitrate=N/A speed=17.7x    frame=14235 fps=424 q=-0.0 size=N/A time=00:09:53.71 bitrate=N/A speed=17.7x    frame=14484 fps=425 q=-0.0 size=N/A time=00:10:04.10 bitrate=N/A speed=17.7x    frame=14711 fps=425 q=-0.0 size=N/A time=00:10:13.57 bitrate=N/A speed=17.7x    frame=14916 fps=425 q=-0.0 size=N/A time=00:10:22.12 bitrate=N/A speed=17.7x    frame=15128 fps=425 q=-0.0 size=N/A time=00:10:30.96 bitrate=N/A speed=17.7x    frame=15354 fps=425 q=-0.0 size=N/A time=00:10:40.38 bitrate=N/A speed=17.7x    frame=15628 fps=426 q=-0.0 size=N/A time=00:10:51.81 bitrate=N/A speed=17.8x    frame=15888 fps=427 q=-0.0 size=N/A time=00:11:02.66 bitrate=N/A speed=17.8x    frame=16149 fps=428 q=-0.0 size=N/A time=00:11:13.54 bitrate=N/A speed=17.9x    frame=16385 fps=429 q=-0.0 size=N/A time=00:11:23.39 bitrate=N/A speed=17.9x    frame=16654 fps=430 q=-0.0 size=N/A time=00:11:34.61 bitrate=N/A speed=17.9x    frame=16919 fps=431 q=-0.0 size=N/A time=00:11:45.66 bitrate=N/A speed=  18x    frame=17175 fps=432 q=-0.0 size=N/A time=00:11:56.34 bitrate=N/A speed=  18x    frame=17408 fps=432 q=-0.0 size=N/A time=00:12:06.05 bitrate=N/A speed=  18x    frame=17659 fps=433 q=-0.0 size=N/A time=00:12:16.52 bitrate=N/A speed=18.1x    frame=17899 fps=433 q=-0.0 size=N/A time=00:12:26.53 bitrate=N/A speed=18.1x    frame=18155 fps=434 q=-0.0 size=N/A time=00:12:37.21 bitrate=N/A speed=18.1x    frame=18416 fps=435 q=-0.0 size=N/A time=00:12:48.10 bitrate=N/A speed=18.1x    frame=18671 fps=436 q=-0.0 size=N/A time=00:12:58.73 bitrate=N/A speed=18.2x    frame=18792 fps=433 q=-0.0 size=N/A time=00:13:03.78 bitrate=N/A speed=18.1x    frame=18992 fps=433 q=-0.0 size=N/A time=00:13:12.12 bitrate=N/A speed=  18x    frame=19207 fps=432 q=-0.0 size=N/A time=00:13:21.09 bitrate=N/A speed=  18x    frame=19482 fps=434 q=-0.0 size=N/A time=00:13:32.56 bitrate=N/A speed=18.1x    frame=19707 fps=434 q=-0.0 size=N/A time=00:13:41.94 bitrate=N/A speed=18.1x    frame=19982 fps=435 q=-0.0 size=N/A time=00:13:53.41 bitrate=N/A speed=18.1x    frame=20239 fps=435 q=-0.0 size=N/A time=00:14:04.13 bitrate=N/A speed=18.2x    frame=20505 fps=436 q=-0.0 size=N/A time=00:14:15.22 bitrate=N/A speed=18.2x    frame=20724 fps=436 q=-0.0 size=N/A time=00:14:24.36 bitrate=N/A speed=18.2x    frame=20952 fps=436 q=-0.0 size=N/A time=00:14:33.87 bitrate=N/A speed=18.2x    frame=21196 fps=437 q=-0.0 size=N/A time=00:14:44.04 bitrate=N/A speed=18.2x    frame=21471 fps=438 q=-0.0 size=N/A time=00:14:55.51 bitrate=N/A speed=18.3x    frame=21744 fps=439 q=-0.0 size=N/A time=00:15:06.90 bitrate=N/A speed=18.3x    frame=21952 fps=438 q=-0.0 size=N/A time=00:15:15.58 bitrate=N/A speed=18.3x    frame=22164 fps=438 q=-0.0 size=N/A time=00:15:24.42 bitrate=N/A speed=18.3x    frame=22383 fps=438 q=-0.0 size=N/A time=00:15:33.55 bitrate=N/A speed=18.3x    frame=22632 fps=438 q=-0.0 size=N/A time=00:15:43.94 bitrate=N/A speed=18.3x    frame=22886 fps=439 q=-0.0 size=N/A time=00:15:54.53 bitrate=N/A speed=18.3x    frame=23069 fps=438 q=-0.0 size=N/A time=00:16:02.16 bitrate=N/A speed=18.3x    frame=23295 fps=438 q=-0.0 size=N/A time=00:16:11.59 bitrate=N/A speed=18.3x    frame=23528 fps=438 q=-0.0 size=N/A time=00:16:21.31 bitrate=N/A speed=18.3x    frame=23755 fps=438 q=-0.0 size=N/A time=00:16:30.78 bitrate=N/A speed=18.3x    frame=23962 fps=438 q=-0.0 size=N/A time=00:16:39.41 bitrate=N/A speed=18.3x    frame=24215 fps=438 q=-0.0 size=N/A time=00:16:49.96 bitrate=N/A speed=18.3x    frame=24428 fps=438 q=-0.0 size=N/A time=00:16:58.85 bitrate=N/A speed=18.3x    frame=24652 fps=438 q=-0.0 size=N/A time=00:17:08.19 bitrate=N/A speed=18.3x    frame=24873 fps=438 q=-0.0 size=N/A time=00:17:17.41 bitrate=N/A speed=18.3x    frame=25132 fps=439 q=-0.0 size=N/A time=00:17:28.21 bitrate=N/A speed=18.3x    frame=25402 fps=439 q=-0.0 size=N/A time=00:17:39.47 bitrate=N/A speed=18.3x    frame=25636 fps=439 q=-0.0 size=N/A time=00:17:49.23 bitrate=N/A speed=18.3x    frame=25885 fps=440 q=-0.0 size=N/A time=00:17:59.62 bitrate=N/A speed=18.3x    frame=26149 fps=440 q=-0.0 size=N/A time=00:18:10.63 bitrate=N/A speed=18.4x    frame=26397 fps=441 q=-0.0 size=N/A time=00:18:20.97 bitrate=N/A speed=18.4x    frame=26672 fps=442 q=-0.0 size=N/A time=00:18:32.44 bitrate=N/A speed=18.4x    frame=26906 fps=442 q=-0.0 size=N/A time=00:18:42.20 bitrate=N/A speed=18.4x    frame=27149 fps=442 q=-0.0 size=N/A time=00:18:52.33 bitrate=N/A speed=18.4x    frame=27349 fps=442 q=-0.0 size=N/A time=00:19:00.68 bitrate=N/A speed=18.4x    frame=27606 fps=442 q=-0.0 size=N/A time=00:19:11.40 bitrate=N/A speed=18.4x    frame=27866 fps=443 q=-0.0 size=N/A time=00:19:22.24 bitrate=N/A speed=18.5x    frame=28122 fps=443 q=-0.0 size=N/A time=00:19:32.92 bitrate=N/A speed=18.5x    frame=28388 fps=443 q=-0.0 size=N/A time=00:19:44.01 bitrate=N/A speed=18.5x    frame=28655 fps=444 q=-0.0 size=N/A time=00:19:55.15 bitrate=N/A speed=18.5x    frame=28886 fps=444 q=-0.0 size=N/A time=00:20:04.78 bitrate=N/A speed=18.5x    frame=29123 fps=444 q=-0.0 size=N/A time=00:20:14.67 bitrate=N/A speed=18.5x    frame=29405 fps=445 q=-0.0 size=N/A time=00:20:26.43 bitrate=N/A speed=18.6x    frame=29648 fps=445 q=-0.0 size=N/A time=00:20:36.56 bitrate=N/A speed=18.6x    frame=29841 fps=445 q=-0.0 size=N/A time=00:20:44.61 bitrate=N/A speed=18.5x    frame=30078 fps=445 q=-0.0 size=N/A time=00:20:54.50 bitrate=N/A speed=18.5x    frame=30305 fps=445 q=-0.0 size=N/A time=00:21:03.97 bitrate=N/A speed=18.5x    frame=30564 fps=445 q=-0.0 size=N/A time=00:21:14.77 bitrate=N/A speed=18.6x    frame=30813 fps=445 q=-0.0 size=N/A time=00:21:25.15 bitrate=N/A speed=18.6x    frame=31057 fps=446 q=-0.0 size=N/A time=00:21:35.33 bitrate=N/A speed=18.6x    frame=31330 fps=446 q=-0.0 size=N/A time=00:21:46.72 bitrate=N/A speed=18.6x    frame=31557 fps=446 q=-0.0 size=N/A time=00:21:56.18 bitrate=N/A speed=18.6x    frame=31748 fps=446 q=-0.0 size=N/A time=00:22:04.15 bitrate=N/A speed=18.6x    frame=31914 fps=445 q=-0.0 size=N/A time=00:22:11.07 bitrate=N/A speed=18.5x    frame=32057 fps=444 q=-0.0 size=N/A time=00:22:17.04 bitrate=N/A speed=18.5x    frame=32201 fps=442 q=-0.0 size=N/A time=00:22:23.05 bitrate=N/A speed=18.5x    frame=32337 fps=441 q=-0.0 size=N/A time=00:22:28.72 bitrate=N/A speed=18.4x    frame=32540 fps=441 q=-0.0 size=N/A time=00:22:37.18 bitrate=N/A speed=18.4x    frame=32730 fps=440 q=-0.0 size=N/A time=00:22:45.11 bitrate=N/A speed=18.4x    frame=32876 fps=439 q=-0.0 size=N/A time=00:22:51.20 bitrate=N/A speed=18.3x    frame=33050 fps=438 q=-0.0 size=N/A time=00:22:58.46 bitrate=N/A speed=18.3x    frame=33224 fps=438 q=-0.0 size=N/A time=00:23:05.71 bitrate=N/A speed=18.3x    frame=33437 fps=438 q=-0.0 size=N/A time=00:23:14.60 bitrate=N/A speed=18.3x    frame=33625 fps=437 q=-0.0 size=N/A time=00:23:22.44 bitrate=N/A speed=18.2x    frame=33889 fps=438 q=-0.0 size=N/A time=00:23:33.45 bitrate=N/A speed=18.3x    frame=34177 fps=439 q=-0.0 size=N/A time=00:23:45.46 bitrate=N/A speed=18.3x    frame=34473 fps=439 q=-0.0 size=N/A time=00:23:57.81 bitrate=N/A speed=18.3x    frame=34740 fps=440 q=-0.0 size=N/A time=00:24:08.94 bitrate=N/A speed=18.3x    frame=35025 fps=441 q=-0.0 size=N/A time=00:24:20.83 bitrate=N/A speed=18.4x    frame=35308 fps=441 q=-0.0 size=N/A time=00:24:32.63 bitrate=N/A speed=18.4x    [Parsed_psnr_10 @ 000001f752c5b880] PSNR y:46.748648 u:48.844531 v:49.034401 average:47.363485 min:36.537842 max:inf
[out#0/null @ 000001f7527f4540] video:15291KiB audio:278340KiB subtitle:0KiB other streams:0KiB global headers:0KiB muxing overhead: unknown
frame=35587 fps=442 q=-0.0 Lsize=N/A time=00:24:44.27 bitrate=N/A speed=18.4x    
